<?xml version="1.0" encoding="utf-8"?>
<svg version="1.1" xmlns="http://www.w3.org/2000/svg" xmlns:xlink="http://www.w3.org/1999/xlink" x="0px" y="0px" viewBox="0 0 130 45" style="enable-background:new 0 0 130 45;" xml:space="preserve">
<style type="text/css">
	.st0{fill:#4F8700;}
	.st1{fill:#FFA300;}
	.st2{fill:#0094A8;}
	.st3{fill:#9AAF00;}
	.st4{fill:#0094A8;stroke:#128D9F;stroke-width:0.25;stroke-miterlimit:10;}
</style>
<g>
	<g>
		<path class="st0" d="M1.6,16.2h8.8c0,0,2.4,0.1,3.4-1.8c0,0,1.2-2.5,1.5-3H6.5c0,0-2.3,0.1-3.2,2.2C3.3,13.6,2.4,15.6,1.6,16.2z"
			/>
		<path class="st1" d="M34.5,4.3l-3.8,3.3c-1.3-1.9-2.7-2.8-4.1-2.8c-0.7,0-1.2,0.2-1.6,0.5c-0.4,0.4-0.6,0.8-0.6,1.2
			c0,0.5,0.2,0.9,0.5,1.3c0.4,0.5,1.7,1.7,3.8,3.5c2,1.6,3.1,2.7,3.5,3.1c1,1,1.8,2,2.2,3c0.4,1,0.6,2,0.6,3.1c0,2.2-0.8,4-2.3,5.5
			c-1.5,1.4-3.5,2.2-6,2.2c-1.9,0-3.6-0.5-5-1.4c-1.4-0.9-2.6-2.4-3.6-4.4l4.3-2.6c1.3,2.4,2.8,3.6,4.5,3.6c0.9,0,1.6-0.3,2.2-0.8
			c0.6-0.5,0.9-1.1,0.9-1.8c0-0.6-0.2-1.2-0.7-1.8c-0.5-0.6-1.4-1.5-3-2.8c-2.9-2.4-4.8-4.2-5.7-5.5c-0.9-1.3-1.3-2.6-1.3-3.9
			c0-1.9,0.7-3.5,2.1-4.8c1.4-1.3,3.2-2,5.3-2c1.3,0,2.6,0.3,3.8,0.9C31.8,1.6,33.1,2.7,34.5,4.3z"/>
		<path class="st2" d="M60.6,14.6l1.1-2.4l-7.4,0.1l-3,6.4H59c-0.7,1.6-1.7,2.7-2.9,3.5c-1.2,0.7-2.7,1.1-4.5,1.1
			c-2.7,0-5-0.9-6.9-2.7c-1.9-1.8-2.8-4-2.8-6.6c0-2.5,0.9-4.6,2.7-6.4c1.8-1.8,4-2.6,6.6-2.6c3,0,5.7,1.2,8,3.6l0,0l2.3-4.8
			c-1.2-1.1-2.5-1.9-3.7-2.5c-2-0.9-4.2-1.3-6.6-1.3c-4.5,0-8.1,1.6-10.9,4.7c-2.4,2.6-3.5,5.7-3.5,9.3c0,2.6,0.6,5,1.9,7.3
			s3,4,5.2,5.2c2.2,1.2,4.7,1.8,7.5,1.8c2.6,0,4.9-0.6,6.8-1.7c1.9-1.1,3.5-2.7,4.7-4.8c1.2-2.1,1.8-4.3,1.8-6.7l0-0.4L60.6,14.6z"
			/>
		<g>
			<polygon class="st3" points="6.1,10.3 6.1,5.7 15.7,5.7 15.7,0.7 1,0.7 1,10.3 			"/>
			<polygon class="st3" points="6.1,18.1 1,18.1 1,27.5 15.7,27.5 15.7,22.5 6.1,22.5 			"/>
		</g>
	</g>
	<g>
		<g>
			<polygon class="st3" points="77.4,10.6 74.8,10.6 72.1,8.1 74.6,8.1 			"/>
			<g>
				<polygon class="st2" points="92.6,10.4 89.6,10.4 89.6,11.3 97.2,11.3 97.2,10.4 94,10.4 94,9.8 97.6,9.8 97.6,8.8 94,8.8 
					94,8.1 92.6,8.1 92.6,8.8 89,8.8 89,9.8 92.6,9.8 				"/>
				<path class="st2" d="M97.4,13.5v-0.6c0-0.3-0.1-0.6-0.3-0.8c-0.2-0.1-0.4-0.2-0.8-0.2h-6.1c-0.2,0-0.5,0.1-0.6,0.2
					c-0.2,0.2-0.3,0.5-0.3,0.7v0.7c0,0.3,0.1,0.5,0.3,0.8c0.2,0.1,0.4,0.3,0.6,0.3h6.2c0.4,0,0.6-0.1,0.8-0.3
					C97.4,14,97.4,13.8,97.4,13.5z M91.6,13.5h-0.8c-0.1,0-0.2-0.1-0.2-0.3V13c0-0.1,0.1-0.2,0.3-0.3h0.8V13.5z M93.8,13.5h-1v-0.8
					h1V13.5z M96.1,13.3c0,0.1-0.2,0.3-0.3,0.3h-0.7v-0.8h0.7c0.2,0,0.3,0.1,0.3,0.3V13.3z"/>
				<path class="st2" d="M86.1,17.3c0,1.4,0.2,3.1,0.4,4.4h1.2c-0.3-1.4-0.4-2.9-0.4-4.4H86.1z"/>
				<path class="st2" d="M89.1,21.7h2.2c0.7-0.4,1.3-0.8,1.8-1.4h-2C90.5,20.9,89.8,21.4,89.1,21.7z"/>
				<path class="st2" d="M88.9,17.3h-1.1c0.1,1.3,0.2,2.5,0.4,3.7h1.2C89.1,19.8,89,18.4,88.9,17.3z"/>
				<path class="st2" d="M90.9,15c-0.3,0-0.5,0.1-0.8,0.3c-0.2,0.2-0.4,0.5-0.4,0.8v2.9c0,0.3,0.1,0.5,0.3,0.7
					c0.2,0.2,0.4,0.4,0.7,0.4h5.1c0.3,0,0.6-0.1,0.8-0.3c0.2-0.2,0.3-0.5,0.3-0.7v-2.7c0-0.3-0.1-0.6-0.3-0.9S96.2,15,95.9,15H90.9z
					 M95.6,18.7c0,0.2-0.1,0.3-0.3,0.3h-3.9c-0.1,0-0.3-0.1-0.3-0.3v-0.2h4.4V18.7z M95.6,17.7h-4.4v-0.5h4.4V17.7z M95.6,16.4h-4.4
					v-0.2c0-0.1,0.1-0.3,0.3-0.3h3.9c0.1,0,0.3,0.1,0.3,0.3V16.4z"/>
				<path class="st2" d="M95.9,20.3H94c0.4,0.5,1,1,1.6,1.4h2.3C97.3,21.4,96.5,20.8,95.9,20.3z"/>
				<path class="st2" d="M84.7,12.6h1.6l-2,2.9c-0.2,0.3-0.2,0.7-0.1,0.9c0.1,0.3,0.4,0.4,0.8,0.4h2.5l0.4-0.8
					c0.1,0.3,0.2,0.6,0.3,0.8h1.3c-0.3-0.7-0.6-2-0.7-2.9h-1.2c0.1,0.5,0.3,1.4,0.4,1.8h-2.1l3.6-5.2h-1.6l-0.6,1h-1.4l2.2-3.5h-1.5
					l-2.2,3.4c-0.2,0.3-0.1,0.5,0,0.7C84.2,12.4,84.5,12.6,84.7,12.6z"/>
				<path class="st2" d="M84,20.5c-0.1,0.3-0.3,0.3-0.4,0.3h-1.2c-0.2,0-0.3-0.1-0.5-0.2c-1.7-1.3-3.1-3-4.3-4.7
					c1.5-1.2,2.9-2.7,3.5-4.4h-1.6c-0.6,1.2-1.5,2.4-2.7,3.2c-0.3-0.5-0.7-1.2-1.1-1.8v-0.5c0-0.4-0.1-0.8-0.4-1
					c-0.3-0.3-0.6-0.4-1-0.4h-3.7V12H74c0.2,0,0.4,0.2,0.4,0.4v7.8c0,0.2-0.2,0.4-0.4,0.4h-2.1l0.5,1.1h2c0.4,0,0.8-0.1,1-0.4
					c0.3-0.3,0.4-0.7,0.4-1.2v-4.8c1.1,1.8,2.6,3.8,4.2,5.4c0,0,0.1,0.1,0.2,0.2c0.2,0.2,0.4,0.2,0.7,0.2h3.7c0.3,0,0.5-0.2,0.6-0.5
					c0.1-0.2,0.5-1.9,0.5-3.4h-1.2C84.5,18.5,84.3,19.6,84,20.5z"/>
				<path class="st2" d="M73.7,14c-0.2-0.3-0.6-0.5-1.1-0.5h-3.8v1.1h3.4c0.1,0,0.2,0.1,0.2,0.3c-0.9,2.3-2.4,4.1-4.3,5.9h2
					c1.4-1.4,2.7-3.1,3.6-5.4C73.9,14.8,73.9,14.3,73.7,14z"/>
			</g>
		</g>
		<g>
			<path class="st2" d="M110.4,13.7h-9.8c-0.3,0-0.5-0.2-0.6-0.4c-0.1-0.2-0.1-0.5,0.1-0.8L104,8h1.9l-3.9,4.6h8.8
				c-0.6-1-1.2-2.1-1.7-3.2h1.6c0.7,1.5,1.7,3,2.8,4.3L110.4,13.7z M112.2,21.2c-0.3,0.3-0.6,0.4-1,0.4h-9.4c-0.4,0-0.7-0.1-1-0.4
				c-0.3-0.3-0.4-0.6-0.4-1v-3.5c0-0.4,0.1-0.7,0.4-1c0.3-0.3,0.6-0.4,1-0.4h9.3c0.4,0,0.8,0.2,1,0.5c0.2,0.3,0.3,0.6,0.3,1v3.4
				C112.6,20.6,112.5,21,112.2,21.2z M111.2,16.9c0-0.3-0.2-0.5-0.5-0.5h-8.3c-0.2,0-0.5,0.2-0.5,0.4v3.2c0,0.2,0.1,0.4,0.4,0.4h8.5
				c0.2,0,0.4-0.2,0.4-0.4V16.9z"/>
			<path class="st2" d="M116.8,21.5l-1.3,0.2c0.5-1.4,1.3-4,1.4-5.6h1.3c-0.2,1.3-0.7,3.7-1.1,5.1C117.1,21.3,116.9,21.4,116.8,21.5
				z M116.9,11.3c-0.4-0.7-1.1-2.4-1.4-3.3h1.4c0.2,0.8,0.9,2.4,1.4,3.3H116.9z M116.9,15.3c-0.4-0.8-1.1-2.5-1.3-3.4h1.4
				c0.2,0.9,0.9,2.6,1.4,3.4H116.9z M119.3,14.9h-0.9c0.2-0.5,0.3-1.6,0.4-2.3h0.8C119.6,13.3,119.5,14.3,119.3,14.9z M127,11.4h1.1
				c-0.1-0.2-0.2-0.6-0.2-0.8h0.9c0.1,0.4,0.3,1.2,0.5,1.6h-0.9c-0.1-0.2-0.2-0.5-0.2-0.6l-0.4,0.6h-1.5c-0.3,0-0.5-0.1-0.5-0.3
				c-0.1-0.2,0-0.4,0.2-0.6c0.3-0.3,0.8-0.8,1-1.1h-0.5c-0.2,0-0.3,0-0.4-0.1c-0.1-0.1-0.2-0.2-0.2-0.3H122V9.4
				c-0.5,0.5-1.5,1.6-2.1,2.1h1.1c0-0.2-0.1-0.5-0.1-0.8h0.9c0,0.4,0.2,1.1,0.4,1.6h-0.9c0-0.1-0.1-0.4-0.2-0.5l-0.4,0.5H119
				c-0.2,0-0.3-0.1-0.4-0.3c-0.1-0.2-0.1-0.3,0.1-0.5c0.4-0.4,0.9-0.9,1.2-1.3h-0.8c-0.2,0-0.4-0.1-0.5-0.3
				c-0.1-0.2-0.1-0.4,0.1-0.6c0.3-0.3,1-1,1.3-1.3h1.3c-0.4,0.4-1.1,1.1-1.4,1.5h0.7c0.1-0.1,0.3-0.3,0.4-0.4h1V8.8h1.2
				c-0.1-0.2-0.2-0.6-0.2-0.8h1.3c0,0.2,0.1,0.6,0.2,0.8h1.4v0.4c0.3-0.3,0.8-1,1.1-1.3h1.2c-0.3,0.4-0.9,1.1-1.3,1.5h0.6
				c0.2-0.2,0.4-0.5,0.6-0.6h1.2C128.8,9.5,127.8,10.6,127,11.4z M128.6,21.3c-0.2,0.2-0.5,0.4-0.9,0.4h-4.3l-0.6-1h4.3
				c0.1,0,0.3-0.2,0.3-0.3v-0.3c0-0.1-0.1-0.3-0.3-0.3h-7c-0.3,0-0.6-0.1-0.8-0.3c-0.2-0.2-0.3-0.4-0.3-0.7v-0.5
				c0-0.4,0.1-0.7,0.4-0.9c0.2-0.1,0.5-0.2,0.8-0.2h6.6c0.1,0,0.3-0.2,0.3-0.3v-0.2c0-0.1-0.1-0.3-0.3-0.3h-8v-0.9h8.6
				c0.3,0,0.6,0.1,0.8,0.3c0.1,0.2,0.2,0.4,0.2,0.6v0.7c0,0.3-0.1,0.5-0.3,0.7c-0.2,0.2-0.5,0.3-0.8,0.3h-6.8
				c-0.1,0-0.3,0.1-0.3,0.3v0.3c0,0.1,0.1,0.3,0.3,0.3h7c0.3,0,0.5,0.1,0.7,0.3c0.2,0.2,0.3,0.5,0.3,0.8v0.9
				C128.9,20.9,128.8,21.1,128.6,21.3z M120.1,14.9c-0.1-0.5-0.2-1.7-0.2-2.3h0.7c0,0.6,0.1,1.7,0.2,2.3H120.1z M121.2,14.9
				c-0.1-0.6-0.2-1.7-0.3-2.3h0.7c0,0.6,0.2,1.7,0.3,2.3H121.2z M125.3,14.7c-0.1,0.1-0.3,0.2-0.6,0.2h-1.8c-0.3,0-0.5-0.1-0.6-0.2
				c-0.1-0.1-0.2-0.3-0.2-0.6v-0.7c0-0.3,0.1-0.5,0.3-0.7c0.1-0.1,0.3-0.2,0.6-0.2h1.8c0.3,0,0.5,0.1,0.6,0.3
				c0.1,0.1,0.2,0.3,0.2,0.5v0.7C125.5,14.3,125.4,14.5,125.3,14.7z M122.3,10.9v-0.8h3.2v0.8H122.3z M122.3,12.2v-0.8h3.2v0.8
				H122.3z M124.4,13.6c0-0.1-0.1-0.2-0.2-0.2h-0.8c-0.1,0-0.2,0.1-0.2,0.2v0.3c0,0.1,0.1,0.2,0.2,0.2h0.8c0.1,0,0.2-0.1,0.2-0.2
				V13.6z M126.4,14.9h-0.8c0.2-0.7,0.4-1.7,0.4-2.3h0.8C126.8,13.2,126.6,14.2,126.4,14.9z M127.2,14.9c-0.1-0.5-0.2-1.6-0.2-2.3
				h0.7c0,0.6,0.1,1.8,0.2,2.3H127.2z M128.4,14.9c-0.1-0.5-0.2-1.7-0.3-2.3h0.8c0,0.6,0.2,1.7,0.3,2.3H128.4z"/>
			<path class="st2" d="M115.8,20.8C115.8,20.8,115.8,20.9,115.8,20.8c-0.2,0.4-0.4,0.4-0.5,0.4h-0.8c0,0,0,0-0.1,0
				c-0.1,0.2-0.2,0.4-0.3,0.5h2.3c0.4,0,0.6-0.2,0.7-0.6c0,0,0-0.2,0.1-0.3L115.8,20.8z"/>
		</g>
	</g>
	<g>
		<g>
			<path class="st4" d="M4.9,39.9c0-0.1,0-0.3,0-0.7C4.9,39,5,38.8,5,38.5c0-0.2,0-0.5,0.1-0.8c0.1-0.3,0.1-0.8,0.1-1.4l0-0.4
				c0.1-0.6,0.1-0.9,0-0.9c0,0-0.1,0-0.2,0.2c0,0-0.1,0.1-0.2,0.2c-0.1,0.1-0.1,0.2-0.1,0.2c-0.2,0.3-0.4,0.6-0.6,1
				c-0.1,0.2-0.2,0.3-0.3,0.3c-0.1,0.1-0.1,0.1-0.2,0c0,0-0.2-0.1-0.3-0.3C3.1,36.3,3,36.2,3,36.1C2.9,36,2.9,36,2.9,36
				c-0.1,0-0.2,0.3-0.3,0.8c-0.1,0.7-0.2,1.1-0.3,1.3c-0.2,0.9-0.4,1.3-0.3,1.4c0,0,0,0.1,0,0.2c0,0.1-0.1,0.2-0.1,0.2
				S1.7,40,1.7,40c-0.1,0.1-0.2,0-0.3-0.1c0-0.1,0-0.2,0-0.4s0.1-0.4,0.1-0.5c0-0.1,0.1-0.3,0.1-0.5c0.1-0.6,0.3-1.2,0.5-2l0.1-0.7
				c0.1-0.2,0.1-0.4,0.1-0.5c0-0.2,0-0.3-0.1-0.4c-0.1,0-0.1-0.1-0.1-0.2c0,0,0-0.1,0-0.1s0.1-0.1,0.1-0.1c0,0,0.1,0,0.1-0.1
				c0,0,0.1,0,0.1,0c0.1,0,0.2,0.1,0.2,0.2s0.1,0.2,0.2,0.4c0,0.1,0.1,0.3,0.2,0.4c0.1,0.2,0.2,0.4,0.4,0.5c0.1,0.2,0.2,0.2,0.2,0.2
				c0,0,0.1-0.1,0.3-0.3c0.1-0.2,0.2-0.3,0.3-0.4c0.5-0.6,0.7-1.1,0.9-1.4c0.1-0.2,0.1-0.3,0.2-0.3c0.1,0,0.1-0.1,0.2-0.1
				c0,0,0.1,0,0.2,0.1c0,0,0.1,0.1,0.1,0.1c0,0,0,0.2,0,0.3c0,0.5,0,1.1-0.1,1.7c-0.1,0.3-0.1,0.5-0.1,0.7c0,0.7-0.1,1.1-0.1,1.2
				c0,0.2,0,0.4,0,0.8c0,0.3,0,0.6-0.1,0.8c-0.1,0.2-0.1,0.4-0.1,0.5c0,0.1,0,0.2-0.1,0.3s-0.1,0.1-0.2,0.1C5,40.1,4.9,40,4.9,39.9z
				"/>
			<path class="st4" d="M9.4,39.2C9.2,39,9,38.7,8.9,38.4c-0.1-0.1-0.1-0.2-0.1-0.2c0,0-0.1,0.1-0.1,0.2c-0.1,0.1-0.2,0.3-0.5,0.6
				c-0.3,0.3-0.5,0.4-0.6,0.5c-0.3,0.2-0.6,0.2-0.9,0.1c-0.4-0.2-0.4-0.5-0.1-1.1c0.2-0.4,0.5-0.7,0.9-1c0.6-0.5,1-0.8,1.2-0.8
				c0.1,0,0.1,0,0.1,0s0.1,0,0.3,0c0.1,0,0.2,0,0.3,0.1c0.1,0,0.1,0.1,0.2,0.3l0.1,0.2l-0.1,0.2c-0.1,0.2-0.2,0.3-0.2,0.4
				c0,0.1,0.1,0.2,0.2,0.5c0.3,0.5,0.6,0.7,0.8,0.7c0.1,0,0.1,0,0.2,0.1c0,0.1,0.1,0.1,0.1,0.2c0,0.1,0,0.2-0.1,0.2
				c-0.1,0.1-0.2,0.1-0.3,0.1C9.9,39.6,9.7,39.4,9.4,39.2z M7.7,38.6c0.2-0.2,0.4-0.4,0.5-0.5c0.1-0.1,0.2-0.3,0.2-0.4
				c0.1-0.2,0.1-0.3,0.1-0.3c0,0,0-0.1,0.1-0.1c0.1,0,0.1-0.1,0.1-0.1c0,0,0,0-0.1,0c-0.1,0-0.2,0.1-0.4,0.2
				c-0.2,0.1-0.4,0.3-0.6,0.4c-0.2,0.2-0.4,0.3-0.4,0.5c-0.1,0.2-0.2,0.3-0.3,0.4c-0.1,0.1-0.1,0.2-0.1,0.3c0,0.1,0.1,0.2,0.1,0.2
				c0.1,0,0.2,0,0.3-0.1C7.4,39,7.5,38.8,7.7,38.6z"/>
			<path class="st4" d="M14,39.8C14,39.8,13.9,39.8,14,39.8c-0.1-0.1-0.1-0.1-0.2-0.2c-0.1-0.1-0.3-0.3-0.5-0.6
				c-0.3-0.3-0.4-0.4-0.4-0.4c0,0-0.1-0.1-0.3-0.3c-0.2-0.2-0.3-0.2-0.3-0.2c-0.1,0-0.1,0.1-0.1,0.2c-0.1,0.4-0.2,0.7-0.4,0.9
				c-0.1,0.1-0.1,0.2-0.1,0.3c0,0.1,0,0.2-0.1,0.2c-0.1,0.1-0.1,0.1-0.2,0.1c-0.1,0-0.1,0-0.2-0.1c-0.1-0.1-0.1-0.2-0.1-0.3
				c0-0.1,0.1-0.3,0.2-0.5c0.2-0.3,0.3-0.6,0.3-0.9c0-0.1,0.1-0.3,0.1-0.4c0.1-0.2,0.1-0.4,0.1-0.7c0.1-0.5,0.1-0.8,0.1-0.9
				c0-0.3,0.1-0.6,0.1-0.8c0-0.1,0-0.1,0-0.3c0-0.1,0-0.2,0-0.3c0-0.1,0-0.2,0-0.2c0-0.2,0.1-0.3,0.1-0.5c0-0.1,0.1-0.4,0.1-0.8
				c0-0.4,0.1-0.6,0.1-0.7c0.1-0.1,0.2-0.1,0.3,0c0,0.1,0.1,0.2,0,0.4c-0.1,0.7-0.1,1.2-0.2,1.5c0,0.3-0.1,0.5-0.1,0.8
				c0,0.3-0.1,0.6-0.1,0.7c0,0.3-0.1,0.5-0.1,0.8c0,0.1,0,0.1,0,0.2c0,0.1,0,0.1,0,0.2c0,0,0,0.1,0,0.1c0,0,0,0.1,0,0.1
				c0,0.1,0,0.1,0.1,0.1c0,0,0.1,0,0.3-0.1c0.2-0.1,0.3-0.2,0.4-0.3c0.2-0.1,0.4-0.3,0.6-0.5c0.1-0.1,0.2-0.2,0.3-0.2
				c0.1,0,0.2-0.1,0.3-0.2c0.1-0.1,0.1-0.1,0.2-0.1c0.1,0,0.1,0.1,0.1,0.2c0,0.2-0.1,0.3-0.3,0.4c-0.2,0.1-0.3,0.2-0.4,0.3
				c-0.1,0.1-0.3,0.2-0.4,0.3c-0.3,0.2-0.5,0.4-0.5,0.5c0,0.1,0.2,0.3,0.6,0.7c0.6,0.6,0.9,1,0.9,1c0,0,0,0.1-0.1,0.2
				c-0.1,0.1-0.2,0.2-0.3,0.2C14.1,39.8,14,39.8,14,39.8z"/>
			<path class="st4" d="M16.3,34.6c0-0.1,0.1-0.1,0.1-0.2c0.1-0.1,0.2-0.1,0.4-0.1c0.7,0.2,1.1,0.3,1.4,0.3c0.2,0,0.3,0,0.4,0.1
				s0.1,0.2,0,0.3c0,0.1-0.2,0.1-0.3,0.1c-0.2,0-0.4,0-0.6,0c-0.7-0.2-1.1-0.3-1.2-0.4C16.3,34.8,16.3,34.7,16.3,34.6z M16.7,39.7
				c0-0.1,0-0.2,0-0.4c0.1-0.5,0.2-0.9,0.2-1.2c0-0.4,0.1-0.6,0.2-0.7c0.1-0.1,0.2,0,0.3,0c0,0.1,0.1,0.2,0,0.3
				c-0.1,0.6-0.1,1-0.2,1.2c0,0.2-0.1,0.3-0.1,0.4c0,0.1,0,0.2-0.1,0.3c0,0.1-0.1,0.1-0.1,0.2c-0.1,0-0.1,0-0.2,0
				C16.8,39.8,16.7,39.8,16.7,39.7z"/>
			<path class="st4" d="M19.7,39.6c0-0.1,0.1-0.3,0.3-0.6c0.2-0.3,0.2-0.5,0.2-0.5c0-0.1,0.1-0.4,0.3-0.8c0.1-0.1,0.1-0.3,0.2-0.5
				c0-0.2,0.1-0.3,0.1-0.4c0.1-0.1,0.1-0.1,0.2-0.1c0.2,0,0.2,0.1,0.2,0.3c-0.1,0.3-0.1,0.6-0.2,0.7c-0.1,0.1-0.1,0.2,0,0.3
				c0,0,0.1,0,0.1,0c0,0,0.2-0.2,0.4-0.4c0.3-0.2,0.5-0.4,0.6-0.5c0.4-0.3,0.7-0.4,0.9-0.5c0.4-0.2,0.7-0.1,0.9,0.2
				c0.1,0.1,0.1,0.3,0.1,0.4c0,0.1,0,0.2-0.1,0.3c0,0.1-0.1,0.2-0.1,0.4c0,0.1-0.1,0.3-0.1,0.4c0,0.1-0.1,0.2-0.1,0.3
				c-0.1,0.2-0.1,0.3-0.1,0.3c0,0.1-0.1,0.2-0.1,0.2c0,0-0.1,0.1-0.1,0.2c-0.1,0.2-0.2,0.3-0.4,0.2c-0.1,0-0.1-0.1-0.1-0.1
				c0,0,0-0.1,0-0.2c0-0.1,0.1-0.3,0.1-0.4c0.1-0.2,0.2-0.5,0.3-0.9c0.1-0.3,0.2-0.5,0.2-0.6c0-0.2-0.1-0.3-0.2-0.3
				c-0.1,0-0.4,0.1-0.8,0.4c-0.4,0.3-0.8,0.6-1,0.8c-0.4,0.4-0.7,0.7-0.7,0.9c0,0.1-0.1,0.2-0.3,0.5c-0.1,0.2-0.2,0.3-0.3,0.4
				c-0.1,0-0.2,0-0.2-0.1C19.7,39.8,19.7,39.7,19.7,39.6z"/>
			<path class="st4" d="M25.8,44.3c-0.1,0-0.2-0.1-0.3-0.1c-0.1,0-0.2-0.1-0.2-0.1c-0.1-0.1-0.3-0.3-0.4-0.6
				c-0.1-0.2-0.2-0.4-0.1-0.6c0-0.1,0.1-0.3,0.4-0.5c0.2-0.2,0.5-0.4,0.6-0.4c0.1,0,0.2-0.1,0.3-0.2l0.2-0.1l0.1-0.8
				c0.2-1.5,0.2-2.2,0.1-2.3c0,0-0.1,0-0.3,0.2c-0.2,0.1-0.3,0.2-0.5,0.3c-0.2,0.1-0.4,0.1-0.5,0.1c-0.2,0-0.4-0.1-0.5-0.3
				c-0.1-0.2-0.2-0.4-0.1-0.6c0-0.2,0.1-0.3,0.2-0.5c0.1-0.2,0.3-0.3,0.5-0.5c0.2-0.1,0.4-0.3,0.5-0.4c0.3-0.2,0.6-0.3,0.9-0.4
				c0.1,0,0.2,0,0.4,0c0.2,0,0.4,0.1,0.5,0.1c0.2,0.2,0.3,0.3,0.3,0.4c0,0.1-0.1,0.2-0.2,0.3c-0.1,0.1-0.2,0.2-0.2,0.2
				c0,0,0,0.1-0.1,0.2c-0.1,0.1-0.1,0.3-0.1,0.6c0,0.2-0.1,0.6-0.1,1.3c-0.1,0.6-0.1,1-0.1,1.3c0,0.4-0.1,0.6-0.1,0.7l0,0.2
				l-0.1,0.4l-0.1,0.5c-0.1,0.6-0.2,1-0.2,1c0,0.1-0.1,0.1-0.1,0.2c0,0.1-0.1,0.2-0.2,0.2c-0.1,0.1-0.2,0.1-0.3,0.1
				C26,44.4,25.9,44.3,25.8,44.3z M26.1,38.3c0.3-0.2,0.6-0.6,0.8-1c0.1-0.2,0.2-0.3,0.2-0.3c0,0,0-0.1,0.1-0.1c0-0.1-0.1-0.1-0.5,0
				c-0.1,0-0.2,0.1-0.3,0.1c-0.4,0.2-0.6,0.4-0.9,0.6c-0.2,0.2-0.4,0.4-0.4,0.6c0,0.2,0,0.3,0.2,0.4C25.5,38.6,25.8,38.5,26.1,38.3z
				 M26,43.7c0,0,0.1-0.1,0.1-0.3c0-0.1,0.1-0.3,0.1-0.6c0-0.3,0-0.4,0-0.4c0,0-0.1,0-0.2,0.1c-0.1,0-0.2,0.1-0.5,0.3
				c-0.1,0.1-0.2,0.2-0.2,0.3c0,0.1,0,0.1,0.1,0.2c0,0.1,0.1,0.2,0.1,0.2c0.1,0.1,0.1,0.1,0.2,0.2C25.9,43.8,25.9,43.8,26,43.7z"/>
			<path class="st4" d="M35,37.8c0.1-1.1,0.2-2.2,0.4-3.4c0-0.2,0.1-0.4,0-0.4c0,0-0.1,0-0.2,0c-0.1,0-0.2,0.1-0.2,0.1
				c-0.1,0-0.1,0-0.3,0.1c-0.1,0.1-0.3,0.1-0.4,0.1c-0.6,0.1-1.1,0.3-1.3,0.4c-0.2,0.1-0.3,0.1-0.3,0.1c0,0-0.1,0-0.1-0.1
				c-0.1-0.1-0.1-0.1-0.1-0.2c0-0.1,0.1-0.1,0.1-0.2c0.1,0,0.2-0.1,0.2-0.1c0.1,0,0.4-0.1,1-0.2c0,0,0.1,0,0.2-0.1
				c0.1,0,0.3-0.1,0.4-0.1c1.1-0.3,1.8-0.5,2.2-0.7c0.3-0.2,0.6-0.3,0.7-0.3c0,0,0.1,0,0.2,0c0.2,0,0.3,0.1,0.3,0.2
				c0,0.1,0,0.1-0.1,0.2c-0.1,0.1-0.2,0.1-0.2,0.1c-0.1,0-0.3,0.1-0.7,0.2c-0.4,0.1-0.6,0.2-0.6,0.3c-0.1,0-0.1,0.1-0.1,0.3
				c0,0,0,0.1,0,0.3c0,0.1,0,0.3-0.1,0.4c0,0.3-0.1,0.5-0.1,0.7c0,0.2,0,0.4-0.1,0.6c0,0.2,0,0.4-0.1,0.7c0,0.3-0.1,0.6-0.1,0.9
				c0,0.3,0,1,0,2.2c0,0.2-0.1,0.3-0.2,0.4c-0.1,0.1-0.2,0.1-0.3-0.1c-0.1-0.1-0.1-0.4-0.1-0.9C34.9,38.6,34.9,38.1,35,37.8z"/>
			<path class="st4" d="M40.8,39.2c-0.3-0.2-0.4-0.5-0.6-0.8c-0.1-0.1-0.1-0.2-0.1-0.2c0,0-0.1,0.1-0.1,0.2
				c-0.1,0.1-0.2,0.3-0.5,0.6c-0.3,0.3-0.5,0.4-0.6,0.5c-0.3,0.2-0.6,0.2-0.9,0.1c-0.4-0.2-0.4-0.5-0.1-1.1c0.2-0.4,0.5-0.7,0.9-1
				c0.6-0.5,1-0.8,1.2-0.8c0.1,0,0.1,0,0.1,0s0.1,0,0.3,0c0.1,0,0.2,0,0.3,0.1c0.1,0,0.1,0.1,0.2,0.3l0.1,0.2l-0.1,0.2
				c-0.1,0.2-0.2,0.3-0.2,0.4c0,0.1,0.1,0.2,0.2,0.5c0.3,0.5,0.6,0.7,0.8,0.7c0.1,0,0.1,0,0.2,0.1c0,0.1,0.1,0.1,0.1,0.2
				c0,0.1,0,0.2-0.1,0.2c-0.1,0.1-0.2,0.1-0.3,0.1C41.3,39.6,41.1,39.4,40.8,39.2z M39.1,38.6c0.2-0.2,0.4-0.4,0.5-0.5
				c0.1-0.1,0.2-0.3,0.2-0.4s0.1-0.3,0.1-0.3c0,0,0-0.1,0.1-0.1c0.1,0,0.1-0.1,0.1-0.1c0,0,0,0-0.1,0c-0.1,0-0.2,0.1-0.4,0.2
				c-0.2,0.1-0.4,0.3-0.6,0.4s-0.4,0.3-0.4,0.5c-0.1,0.2-0.2,0.3-0.3,0.4c-0.1,0.1-0.1,0.2-0.1,0.3c0,0.1,0.1,0.2,0.1,0.2
				c0.1,0,0.2,0,0.3-0.1C38.8,39,38.9,38.8,39.1,38.6z"/>
			<path class="st4" d="M43.2,34.6c0-0.1,0.1-0.1,0.1-0.2c0.1-0.1,0.2-0.1,0.4-0.1c0.7,0.2,1.1,0.3,1.4,0.3c0.2,0,0.3,0,0.4,0.1
				c0.1,0.1,0.1,0.2,0,0.3c0,0.1-0.2,0.1-0.3,0.1c-0.2,0-0.4,0-0.6,0c-0.7-0.2-1.1-0.3-1.2-0.4C43.2,34.8,43.2,34.7,43.2,34.6z
				 M43.6,39.7c0-0.1,0-0.2,0-0.4c0.1-0.5,0.2-0.9,0.2-1.2c0-0.4,0.1-0.6,0.2-0.7c0.1-0.1,0.2,0,0.3,0c0,0.1,0.1,0.2,0,0.3
				c-0.1,0.6-0.1,1-0.2,1.2c0,0.2-0.1,0.3-0.1,0.4c0,0.1,0,0.2-0.1,0.3c0,0.1-0.1,0.1-0.1,0.2c-0.1,0-0.1,0-0.2,0
				C43.7,39.8,43.6,39.8,43.6,39.7z"/>
			<path class="st4" d="M46.4,39.4c0-0.2,0-0.4,0-0.5c0-0.1,0-0.3,0-0.4c0-0.1,0-0.3,0.1-0.7c0.1-0.3,0.1-0.5,0.1-0.5
				c0,0,0.1-0.1,0.2-0.1c0.1,0,0.1,0,0.2,0c0,0,0,0.1,0,0.2c0,0.1,0,0.4-0.1,0.8c-0.1,0.3-0.1,0.5-0.1,0.7c0,0.1,0,0.2,0.1,0.2
				c0.1,0,0.2-0.1,0.4-0.3c0.3-0.2,0.4-0.4,0.4-0.4c0,0,0.1-0.1,0.3-0.3c0.3-0.3,0.5-0.6,0.6-1c0-0.1,0.1-0.1,0.1-0.2
				c0,0,0.1-0.1,0.1-0.1c0,0,0.1,0,0.2,0c0.1,0,0.2,0,0.2,0.1c0,0.1,0.1,0.2,0.1,0.5c0,0.3,0,0.5,0,0.7c0,0.2,0.1,0.4,0.1,0.5
				c0,0.1,0.1,0.2,0.1,0.2c0,0,0.2-0.1,0.4-0.4c0.2-0.3,0.4-0.5,0.5-0.7c0.2-0.3,0.3-0.5,0.4-0.7c0.1-0.2,0.2-0.4,0.2-0.4
				c0.1-0.1,0.1-0.1,0.2-0.1c0,0,0.1,0,0.1,0c0,0,0.1,0,0.1,0.1c0,0,0,0.1,0,0.1c0,0.1-0.1,0.2-0.2,0.5c-0.1,0.3-0.2,0.5-0.3,0.6
				c-0.1,0.1-0.1,0.2-0.1,0.2c0,0.1-0.1,0.2-0.3,0.5s-0.3,0.4-0.5,0.6c-0.1,0.1-0.2,0.2-0.3,0.3c0,0-0.1,0-0.3,0.1
				c-0.1,0-0.2,0-0.2,0c0,0-0.1,0-0.2-0.1c-0.1,0-0.1-0.1-0.1-0.1c0,0-0.1-0.1-0.1-0.2s-0.1-0.2-0.1-0.3c0-0.3-0.1-0.4-0.1-0.4
				c-0.1,0-0.3,0.3-0.8,0.9c-0.2,0.2-0.4,0.4-0.7,0.6c-0.2,0.1-0.4,0.2-0.5,0.2c-0.1,0-0.2,0-0.2-0.1C46.5,39.7,46.5,39.5,46.4,39.4
				z"/>
			<path class="st4" d="M54.3,39.2c-0.3-0.2-0.4-0.5-0.6-0.8c-0.1-0.1-0.1-0.2-0.1-0.2c0,0-0.1,0.1-0.1,0.2
				c-0.1,0.1-0.2,0.3-0.5,0.6c-0.3,0.3-0.5,0.4-0.6,0.5c-0.3,0.2-0.6,0.2-0.9,0.1c-0.4-0.2-0.4-0.5-0.1-1.1c0.2-0.4,0.5-0.7,0.9-1
				c0.6-0.5,1-0.8,1.2-0.8c0.1,0,0.1,0,0.1,0s0.1,0,0.3,0c0.1,0,0.2,0,0.3,0.1c0.1,0,0.1,0.1,0.2,0.3l0.1,0.2l-0.1,0.2
				c-0.1,0.2-0.2,0.3-0.2,0.4c0,0.1,0.1,0.2,0.2,0.5c0.3,0.5,0.6,0.7,0.8,0.7c0.1,0,0.1,0,0.2,0.1c0,0.1,0.1,0.1,0.1,0.2
				c0,0.1,0,0.2-0.1,0.2c-0.1,0.1-0.2,0.1-0.3,0.1C54.7,39.6,54.5,39.4,54.3,39.2z M52.6,38.6c0.2-0.2,0.4-0.4,0.5-0.5
				c0.1-0.1,0.2-0.3,0.2-0.4c0.1-0.2,0.1-0.3,0.1-0.3c0,0,0-0.1,0.1-0.1c0.1,0,0.1-0.1,0.1-0.1c0,0,0,0-0.1,0
				c-0.1,0-0.2,0.1-0.4,0.2c-0.2,0.1-0.4,0.3-0.6,0.4c-0.2,0.2-0.4,0.3-0.4,0.5c-0.1,0.2-0.2,0.3-0.3,0.4c-0.1,0.1-0.1,0.2-0.1,0.3
				c0,0.1,0.1,0.2,0.1,0.2c0.1,0,0.2,0,0.3-0.1C52.2,39,52.4,38.8,52.6,38.6z"/>
			<path class="st4" d="M55.6,39.6c0-0.1,0.1-0.3,0.3-0.6c0.2-0.3,0.2-0.5,0.2-0.5c0-0.1,0.1-0.4,0.3-0.8c0.1-0.1,0.1-0.3,0.2-0.5
				c0-0.2,0.1-0.3,0.1-0.4c0.1-0.1,0.1-0.1,0.2-0.1c0.2,0,0.2,0.1,0.2,0.3c-0.1,0.3-0.1,0.6-0.2,0.7c-0.1,0.1-0.1,0.2,0,0.3
				c0,0,0.1,0,0.1,0c0,0,0.2-0.2,0.4-0.4c0.3-0.2,0.5-0.4,0.6-0.5c0.4-0.3,0.7-0.4,0.9-0.5c0.4-0.2,0.7-0.1,0.9,0.2
				c0.1,0.1,0.1,0.3,0.1,0.4c0,0.1,0,0.2-0.1,0.3c0,0.1-0.1,0.2-0.1,0.4c0,0.1-0.1,0.3-0.1,0.4c0,0.1-0.1,0.2-0.1,0.3
				c-0.1,0.2-0.1,0.3-0.1,0.3c0,0.1-0.1,0.2-0.1,0.2c0,0-0.1,0.1-0.1,0.2c-0.1,0.2-0.2,0.3-0.4,0.2c-0.1,0-0.1-0.1-0.1-0.1
				c0,0,0-0.1,0-0.2c0-0.1,0.1-0.3,0.1-0.4c0.1-0.2,0.2-0.5,0.3-0.9c0.1-0.3,0.2-0.5,0.2-0.6c0-0.2-0.1-0.3-0.2-0.3
				c-0.1,0-0.4,0.1-0.8,0.4c-0.4,0.3-0.8,0.6-1,0.8c-0.4,0.4-0.7,0.7-0.7,0.9c0,0.1-0.1,0.2-0.3,0.5c-0.1,0.2-0.2,0.3-0.3,0.4
				c-0.1,0-0.2,0-0.2-0.1C55.6,39.8,55.5,39.7,55.6,39.6z"/>
			<path class="st4" d="M67.7,39.2c-0.3-0.2-0.4-0.5-0.6-0.8c-0.1-0.1-0.1-0.2-0.1-0.2c0,0-0.1,0.1-0.1,0.2
				c-0.1,0.1-0.2,0.3-0.5,0.6c-0.3,0.3-0.5,0.4-0.6,0.5c-0.3,0.2-0.6,0.2-0.9,0.1c-0.4-0.2-0.4-0.5-0.1-1.1c0.2-0.4,0.5-0.7,0.9-1
				c0.6-0.5,1-0.8,1.2-0.8c0.1,0,0.1,0,0.1,0c0,0,0.1,0,0.3,0c0.1,0,0.2,0,0.3,0.1c0.1,0,0.1,0.1,0.2,0.3l0.1,0.2l-0.1,0.2
				c-0.1,0.2-0.2,0.3-0.2,0.4c0,0.1,0.1,0.2,0.2,0.5c0.3,0.5,0.6,0.7,0.8,0.7c0.1,0,0.1,0,0.2,0.1c0,0.1,0.1,0.1,0.1,0.2
				c0,0.1,0,0.2-0.1,0.2c-0.1,0.1-0.2,0.1-0.3,0.1C68.2,39.6,68,39.4,67.7,39.2z M66,38.6c0.2-0.2,0.4-0.4,0.5-0.5
				c0.1-0.1,0.2-0.3,0.2-0.4s0.1-0.3,0.1-0.3c0,0,0-0.1,0.1-0.1c0.1,0,0.1-0.1,0.1-0.1c0,0,0,0-0.1,0c-0.1,0-0.2,0.1-0.4,0.2
				c-0.2,0.1-0.4,0.3-0.6,0.4c-0.2,0.2-0.4,0.3-0.4,0.5c-0.1,0.2-0.2,0.3-0.3,0.4c-0.1,0.1-0.1,0.2-0.1,0.3c0,0.1,0.1,0.2,0.1,0.2
				c0.1,0,0.2,0,0.3-0.1C65.7,39,65.8,38.8,66,38.6z"/>
			<path class="st4" d="M74.6,39.7c0-0.1,0-0.2,0-0.5c0-0.5,0-1-0.1-1.5c0-0.1,0-0.2,0.1-0.3c0.1-0.1,0.2-0.4,0.2-0.9
				c0-0.2,0-0.5,0.1-1.1c0.1-0.5,0.1-1,0.1-1.4c0-0.4,0-0.6,0.1-0.7c0-0.1,0.1-0.1,0.2-0.1l0.1,0V34c0,0.5,0,0.9-0.1,1.2
				c0,0.3-0.1,0.5-0.1,0.6c0,0,0,0.3,0,0.7c0,0.4,0,0.6,0,0.6c0,0,0.2,0,0.4,0c0.3,0,0.7,0,1,0.1c0.4,0.1,0.6,0.2,0.7,0.3
				c0.1,0,0,0.1,0,0.3c-0.1,0.1-0.1,0.2-0.2,0.3c-0.1,0.1-0.3,0.2-0.6,0.4c0,0-0.2,0.1-0.4,0.3c-0.1,0.1-0.3,0.2-0.5,0.3
				c-0.2,0.1-0.3,0.1-0.3,0.1c-0.1,0-0.1,0-0.2,0.1c0,0.1,0,0.2,0,0.3c0,0.2,0,0.4-0.1,0.4c-0.1,0.1-0.2,0.1-0.4-0.1
				C74.6,39.8,74.6,39.8,74.6,39.7z M75.6,38.5c0.2-0.1,0.3-0.2,0.4-0.3l0.2-0.2l0.1-0.1l0-0.1l0-0.1c0,0-0.1-0.1-0.3-0.1
				c-0.1,0-0.3,0-0.4,0s-0.3,0-0.4,0c-0.1,0-0.1,0.1-0.1,0.1c0,0.1,0,0.2,0,0.4c0,0.2,0,0.4,0,0.4C75.3,38.7,75.4,38.6,75.6,38.5z"
				/>
			<path class="st4" d="M79.2,39.8c-0.3-0.1-0.5-0.2-0.6-0.4c-0.1-0.2-0.2-0.4-0.2-0.6c0-0.1,0-0.3,0-0.3c0-0.1,0.1-0.3,0.2-0.5
				c0.1-0.2,0.3-0.4,0.5-0.6c0.2-0.2,0.4-0.5,0.6-0.7c0.2-0.2,0.4-0.3,0.5-0.4c0.1-0.1,0.3-0.1,0.4-0.1c0.1,0,0.2,0,0.3,0
				c0.1,0,0.1,0.1,0.2,0.2c0.2,0.2,0.3,0.4,0.3,0.6c0.1,0.1,0.1,0.2,0.1,0.3c0.1,0.1,0.1,0.2,0,0.3c-0.1,0.2-0.3,0.2-0.6,0.2
				c-0.1,0-0.2,0-0.3,0.1c-0.1,0.1-0.3,0.2-0.5,0.2c-0.2,0.1-0.4,0.1-0.6,0.2c-0.2,0.1-0.3,0.1-0.3,0.1s-0.1,0-0.1,0.1
				c0,0.1,0,0.1,0,0.2c0,0.1,0,0.2,0.1,0.3c0,0.1,0.1,0.2,0.2,0.3c0.1,0,0.2,0.1,0.4,0.1c0.2,0,0.3,0,0.4,0c0.1,0,0.3,0,0.5-0.1
				c0.2,0,0.3-0.1,0.4-0.1c0.1,0,0.1-0.1,0.1-0.1c0,0,0.1,0,0.1,0.1c0.1,0.1,0.1,0.2,0,0.3c0,0.1-0.1,0.2-0.3,0.2
				c-0.1,0-0.2,0.1-0.2,0.1c-0.1,0-0.1,0-0.2,0s-0.2,0-0.4,0C79.6,39.9,79.3,39.9,79.2,39.8z M79.7,37.7c0.2-0.1,0.3-0.1,0.4-0.1
				c0,0,0.1,0,0.2-0.1c0.1,0,0.2-0.1,0.3-0.1c0.1,0,0.2-0.1,0.2-0.1c0,0,0,0,0-0.1c0,0,0-0.1-0.1-0.2c-0.1-0.1-0.1-0.2-0.2-0.3
				c-0.1-0.1-0.2-0.1-0.3,0c-0.1,0.1-0.3,0.2-0.6,0.5c-0.2,0.3-0.4,0.5-0.4,0.5C79.3,37.9,79.4,37.9,79.7,37.7z"/>
			<path class="st4" d="M83.8,37.9c0-0.1,0-0.1,0-0.2c0-0.1,0-0.1,0-0.2c0,0,0-0.1,0-0.1l0-0.1l-0.2,0c-0.1,0-0.3,0-0.4,0.1
				c-0.2,0.1-0.3,0.1-0.3,0.1c-0.1,0-0.1-0.1-0.1-0.1c0-0.1,0-0.1,0-0.2c0,0,0.1-0.1,0.2-0.2c0.1-0.1,0.2-0.1,0.2-0.1
				c0,0,0.1,0,0.2-0.1c0.1,0,0.2-0.1,0.4-0.1c0.1,0,0.2-0.1,0.2-0.1c0,0,0.1-0.1,0.1-0.3c0.2-0.6,0.3-1.1,0.5-1.3
				c0.1-0.1,0.1-0.2,0.1-0.3c0-0.1,0.1-0.1,0.1-0.2c0.1-0.1,0.1-0.1,0.2-0.1c0.1,0,0.1,0,0.1,0c0,0,0,0.1,0,0.2c0,0.1,0,0.2-0.1,0.3
				c-0.1,0.1-0.1,0.2-0.2,0.5c-0.1,0.3-0.2,0.4-0.2,0.5s0,0.1-0.1,0.2c-0.1,0.2-0.1,0.3,0,0.3c0,0,0.1,0,0.3,0c0.1,0,0.2,0,0.2,0
				c0,0,0,0.1,0.1,0.1c0,0.1,0,0.2-0.1,0.2S85.1,37,85,37c-0.3,0-0.4,0.2-0.5,0.5c-0.2,0.6-0.3,1-0.3,1.2c0,0.2,0,0.3,0,0.4
				c0.1,0.1,0.3,0.2,0.6,0.1c0.2-0.1,0.3-0.1,0.4-0.1c0.1,0,0.3-0.1,0.4-0.2c0.2-0.1,0.3-0.1,0.4,0c0.1,0.1,0.1,0.2,0,0.3
				c-0.1,0.1-0.3,0.3-0.7,0.4c-0.9,0.3-1.5,0.3-1.8-0.1C83.6,39.3,83.6,38.8,83.8,37.9z"/>
			<path class="st4" d="M88.3,37.9c0-0.1,0-0.1,0-0.2c0-0.1,0-0.1,0-0.2c0,0,0-0.1,0-0.1l0-0.1l-0.2,0c-0.1,0-0.3,0-0.4,0.1
				c-0.2,0.1-0.3,0.1-0.3,0.1c-0.1,0-0.1-0.1-0.1-0.1c0-0.1,0-0.1,0-0.2c0,0,0.1-0.1,0.2-0.2c0.1-0.1,0.2-0.1,0.2-0.1
				c0,0,0.1,0,0.2-0.1c0.1,0,0.3-0.1,0.4-0.1c0.1,0,0.2-0.1,0.2-0.1c0,0,0.1-0.1,0.1-0.3c0.2-0.6,0.3-1.1,0.5-1.3
				c0.1-0.1,0.1-0.2,0.1-0.3c0-0.1,0.1-0.1,0.1-0.2c0.1-0.1,0.1-0.1,0.2-0.1c0.1,0,0.1,0,0.1,0c0,0,0,0.1,0,0.2c0,0.1,0,0.2-0.1,0.3
				c-0.1,0.1-0.1,0.2-0.2,0.5c-0.1,0.3-0.2,0.4-0.2,0.5s0,0.1-0.1,0.2c-0.1,0.2-0.1,0.3,0,0.3c0,0,0.1,0,0.3,0c0.1,0,0.2,0,0.2,0
				c0,0,0,0.1,0.1,0.1c0,0.1,0,0.2-0.1,0.2C89.7,37,89.6,37,89.5,37c-0.3,0-0.4,0.2-0.5,0.5c-0.2,0.6-0.3,1-0.3,1.2
				c0,0.2,0,0.3,0,0.4c0.1,0.1,0.3,0.2,0.6,0.1c0.2-0.1,0.3-0.1,0.4-0.1c0.1,0,0.3-0.1,0.4-0.2c0.2-0.1,0.3-0.1,0.4,0s0.1,0.2,0,0.3
				c-0.1,0.1-0.3,0.3-0.7,0.4c-0.9,0.3-1.5,0.3-1.8-0.1C88.1,39.3,88.1,38.8,88.3,37.9z"/>
			<path class="st4" d="M92.6,39.8c-0.3-0.1-0.5-0.2-0.6-0.4c-0.1-0.2-0.2-0.4-0.2-0.6c0-0.1,0-0.3,0-0.3c0-0.1,0.1-0.3,0.2-0.5
				c0.1-0.2,0.3-0.4,0.5-0.6c0.2-0.2,0.4-0.5,0.6-0.7c0.2-0.2,0.4-0.3,0.5-0.4c0.1-0.1,0.3-0.1,0.4-0.1c0.1,0,0.2,0,0.3,0
				c0,0,0.1,0.1,0.2,0.2c0.2,0.2,0.3,0.4,0.3,0.6c0.1,0.1,0.1,0.2,0.1,0.3c0.1,0.1,0.1,0.2,0,0.3c-0.1,0.2-0.3,0.2-0.6,0.2
				c-0.1,0-0.2,0-0.3,0.1c-0.1,0.1-0.3,0.2-0.5,0.2c-0.2,0.1-0.4,0.1-0.6,0.2c-0.2,0.1-0.3,0.1-0.3,0.1c-0.1,0-0.1,0-0.1,0.1
				c0,0.1,0,0.1,0,0.2c0,0.1,0,0.2,0.1,0.3c0,0.1,0.1,0.2,0.2,0.3c0.1,0,0.2,0.1,0.4,0.1c0.2,0,0.3,0,0.4,0c0.1,0,0.3,0,0.5-0.1
				c0.2,0,0.3-0.1,0.4-0.1c0.1,0,0.1-0.1,0.1-0.1c0,0,0.1,0,0.1,0.1c0.1,0.1,0.1,0.2,0,0.3c0,0.1-0.1,0.2-0.3,0.2
				c-0.1,0-0.2,0.1-0.2,0.1c0,0-0.1,0-0.2,0c-0.1,0-0.2,0-0.4,0C93,39.9,92.8,39.9,92.6,39.8z M93.2,37.7c0.2-0.1,0.3-0.1,0.4-0.1
				c0,0,0.1,0,0.2-0.1c0.1,0,0.2-0.1,0.3-0.1c0.1,0,0.2-0.1,0.2-0.1c0,0,0,0,0-0.1c0,0,0-0.1-0.1-0.2c-0.1-0.1-0.1-0.2-0.2-0.3
				c-0.1-0.1-0.2-0.1-0.3,0c-0.1,0.1-0.3,0.2-0.6,0.5c-0.2,0.3-0.4,0.5-0.4,0.5C92.7,37.9,92.9,37.9,93.2,37.7z"/>
			<path class="st4" d="M97.2,39.1c0.1-0.1,0.1-0.3,0.1-0.6s0-0.5,0-0.7c0-0.2-0.1-0.4-0.2-0.7c-0.1-0.2-0.1-0.4-0.2-0.4
				c0,0-0.1-0.1-0.1-0.2c0-0.1,0-0.2,0.1-0.2c0.1-0.1,0.2-0.1,0.2,0c0.1,0,0.2,0.2,0.3,0.4c0.1,0.2,0.2,0.4,0.2,0.6
				c0,0.2,0.1,0.2,0.3,0l0,0c0.1-0.2,0.2-0.3,0.3-0.5c0.1-0.2,0.2-0.3,0.4-0.3c0-0.2,0.2-0.2,0.4-0.2c0.1-0.1,0.3-0.1,0.4,0
				c0,0,0.1,0.1,0.1,0.2c0,0.1-0.1,0.3-0.3,0.3c-0.1,0-0.3,0.2-0.4,0.4c-0.2,0.2-0.3,0.3-0.3,0.4c0,0.1-0.1,0.3-0.3,0.6
				c-0.2,0.3-0.3,0.6-0.3,0.7c-0.1,0.3-0.1,0.6-0.1,0.9c0,0.1,0,0.2-0.1,0.3c-0.2,0.2-0.3,0.2-0.4,0c-0.1-0.1-0.1-0.2-0.1-0.4
				C97.2,39.3,97.2,39.2,97.2,39.1z"/>
			<path class="st4" d="M106.5,42.7c-0.1,0-0.1,0-0.2,0c0,0-0.1-0.1-0.1-0.2c-0.1-0.3-0.1-1.1-0.1-2.5c0-0.4,0-0.6,0-0.7
				c0-0.1,0-0.6,0.1-1.4c0-0.3,0-0.5,0-0.5s0-0.1-0.1-0.2c-0.1-0.1-0.2-0.2-0.2-0.3c0-0.1,0.1-0.2,0.2-0.3c0.1-0.1,0.1-0.2,0.1-0.3
				c0-0.1,0-0.2,0.1-0.3c0.1,0,0.1-0.1,0.2-0.1s0.1,0,0.1,0.1c0,0,0.1,0.2,0.1,0.3l0,0.3l0.2,0.1c0.2,0.1,0.4,0.1,0.7,0.1
				c0.7,0.1,1,0.3,1,0.6c0,0.1-0.1,0.3-0.2,0.5c-0.1,0.2-0.3,0.4-0.4,0.5c-0.5,0.5-0.9,0.8-1.2,1c-0.2,0.1-0.3,0.2-0.3,0.3
				c0,0.1,0,0.3,0,0.7c0.1,1.3,0.2,2,0.1,2.1C106.6,42.6,106.6,42.6,106.5,42.7z M107.7,37.4c-0.1,0-0.3-0.1-0.6-0.1
				c-0.2,0-0.4,0-0.4,0.1c-0.1,0.1-0.1,0.3-0.1,0.8c0,0.5,0,0.8,0.1,0.8c0.1,0,0.3-0.1,0.7-0.5c0.5-0.5,0.7-0.8,0.7-0.9
				C108,37.5,107.9,37.5,107.7,37.4z"/>
			<path class="st4" d="M110.8,40c-0.1,0-0.1,0-0.2-0.1s-0.1-0.1-0.1-0.1c0,0,0-0.2,0.1-0.5c0.1-0.3,0.2-0.6,0.2-0.9
				c0-0.3,0.1-0.4,0.1-0.5c0-0.1,0.1-0.4,0.2-0.8c0-0.2,0.1-0.4,0.2-0.8c0-0.2,0.1-0.3,0.1-0.6c0.1-0.2,0.2-0.6,0.3-1.2
				c0.1-0.4,0.2-0.9,0.2-1.4c0-0.2,0.1-0.4,0.1-0.4c0.1,0,0.1-0.1,0.2-0.1c0.1,0,0.1,0,0.1,0.1c0,0.1,0,0.2,0,0.3
				c0,0.3-0.1,0.8-0.2,1.4c0,0.1,0,0.1-0.1,0.3c0,0.1-0.1,0.2-0.1,0.3c-0.1,0.3-0.1,0.5-0.1,0.6c0,0.2-0.1,0.4-0.1,0.6
				c0,0.2-0.1,0.4-0.1,0.5l-0.1,0.3c0,0.1,0,0.3-0.1,0.7c-0.1,0.3-0.1,0.6-0.1,0.9c0,0.3-0.1,0.5-0.1,0.7c-0.1,0.2-0.1,0.3-0.1,0.4
				c0,0.1,0,0.2-0.1,0.2c0,0.1-0.1,0.1-0.1,0.1C111,40,110.9,40,110.8,40z"/>
			<path class="st4" d="M117,39.2c-0.3-0.2-0.4-0.5-0.6-0.8c-0.1-0.1-0.1-0.2-0.1-0.2c0,0-0.1,0.1-0.1,0.2c-0.1,0.1-0.3,0.3-0.5,0.6
				c-0.3,0.3-0.5,0.4-0.6,0.5c-0.3,0.2-0.6,0.2-0.9,0.1c-0.4-0.2-0.4-0.5-0.1-1.1c0.2-0.4,0.5-0.7,0.9-1c0.6-0.5,1-0.8,1.2-0.8
				c0.1,0,0.1,0,0.1,0c0,0,0.1,0,0.3,0c0.1,0,0.2,0,0.3,0.1c0.1,0,0.1,0.1,0.2,0.3l0.1,0.2l-0.1,0.2c-0.1,0.2-0.2,0.3-0.2,0.4
				c0,0.1,0.1,0.2,0.2,0.5c0.3,0.5,0.6,0.7,0.8,0.7c0.1,0,0.1,0,0.2,0.1c0.1,0.1,0.1,0.1,0.1,0.2c0,0.1,0,0.2-0.1,0.2
				c-0.1,0.1-0.2,0.1-0.3,0.1C117.5,39.6,117.3,39.4,117,39.2z M115.3,38.6c0.2-0.2,0.4-0.4,0.5-0.5c0.1-0.1,0.2-0.3,0.2-0.4
				c0.1-0.2,0.1-0.3,0.1-0.3c0,0,0-0.1,0.1-0.1c0.1,0,0.1-0.1,0.1-0.1c0,0,0,0-0.1,0c-0.1,0-0.2,0.1-0.4,0.2
				c-0.2,0.1-0.4,0.3-0.6,0.4c-0.2,0.2-0.4,0.3-0.4,0.5c-0.1,0.2-0.2,0.3-0.3,0.4c-0.1,0.1-0.1,0.2-0.1,0.3c0,0.1,0.1,0.2,0.1,0.2
				c0.1,0,0.2,0,0.3-0.1C115,39,115.1,38.8,115.3,38.6z"/>
			<path class="st4" d="M119.3,39.9c-0.1,0-0.2-0.1-0.3-0.1c-0.1,0-0.2-0.1-0.3-0.2c-0.2-0.2-0.2-0.4-0.3-0.6c0-0.3,0-0.5,0.1-0.7
				c0.3-0.4,0.5-0.8,0.8-1c0.2-0.1,0.3-0.2,0.3-0.3c0.1-0.1,0.2-0.2,0.5-0.3c0.2-0.1,0.4-0.2,0.5-0.2c0.1,0,0.3,0,0.5,0
				c0.2,0,0.2,0.2,0.1,0.4c-0.1,0.2-0.2,0.2-0.4,0.2c-0.1-0.1-0.3,0-0.6,0.1c-0.2,0.1-0.4,0.2-0.6,0.5c-0.3,0.2-0.4,0.4-0.5,0.6
				c-0.2,0.3-0.3,0.6-0.2,0.8c0.1,0.2,0.2,0.4,0.4,0.4c0.1,0,0.2,0,0.3,0.1c0.2,0.1,0.5,0,0.9-0.1c0.4-0.1,0.7-0.2,0.9-0.4
				c0.1-0.1,0.2-0.2,0.3-0.1c0.1,0,0.1,0,0.1,0c0,0,0,0,0,0.1c0,0.1,0,0.2,0,0.2c0,0,0,0.1-0.1,0.1c0,0-0.1,0.1-0.2,0.1
				c-0.1,0.1-0.1,0.1-0.2,0.1c-0.1,0-0.1,0.1-0.2,0.1c-0.1,0-0.1,0-0.1,0c-0.1,0-0.2,0-0.4,0.1c-0.2,0.1-0.3,0.1-0.4,0.1
				c-0.1,0-0.3,0-0.6,0C119.6,39.9,119.5,39.9,119.3,39.9z"/>
			<path class="st4" d="M124,39.8c-0.3-0.1-0.5-0.2-0.6-0.4c-0.1-0.2-0.2-0.4-0.2-0.6c0-0.1,0-0.3,0-0.3c0-0.1,0.1-0.3,0.2-0.5
				c0.1-0.2,0.3-0.4,0.5-0.6c0.2-0.2,0.4-0.5,0.6-0.7c0.2-0.2,0.4-0.3,0.5-0.4c0.1-0.1,0.3-0.1,0.4-0.1c0.1,0,0.2,0,0.3,0
				c0,0,0.1,0.1,0.2,0.2c0.2,0.2,0.3,0.4,0.3,0.6c0.1,0.1,0.1,0.2,0.1,0.3c0.1,0.1,0.1,0.2,0,0.3c-0.1,0.2-0.3,0.2-0.6,0.2
				c-0.1,0-0.2,0-0.3,0.1c-0.1,0.1-0.3,0.2-0.5,0.2c-0.2,0.1-0.4,0.1-0.6,0.2c-0.2,0.1-0.3,0.1-0.3,0.1c-0.1,0-0.1,0-0.1,0.1
				c0,0.1,0,0.1,0,0.2c0,0.1,0,0.2,0.1,0.3c0,0.1,0.1,0.2,0.2,0.3c0.1,0,0.2,0.1,0.4,0.1c0.2,0,0.3,0,0.4,0c0.1,0,0.3,0,0.5-0.1
				c0.2,0,0.3-0.1,0.4-0.1c0.1,0,0.1-0.1,0.1-0.1c0,0,0.1,0,0.1,0.1c0.1,0.1,0.1,0.2,0,0.3c0,0.1-0.1,0.2-0.3,0.2
				c-0.1,0-0.2,0.1-0.2,0.1c0,0-0.1,0-0.2,0s-0.2,0-0.4,0C124.4,39.9,124.1,39.9,124,39.8z M124.6,37.7c0.2-0.1,0.3-0.1,0.4-0.1
				c0,0,0.1,0,0.2-0.1c0.1,0,0.2-0.1,0.3-0.1c0.1,0,0.2-0.1,0.2-0.1c0,0,0,0,0-0.1c0,0,0-0.1-0.1-0.2c-0.1-0.1-0.1-0.2-0.2-0.3
				c-0.1-0.1-0.2-0.1-0.3,0c-0.1,0.1-0.3,0.2-0.6,0.5c-0.2,0.3-0.4,0.5-0.4,0.5C124.1,37.9,124.2,37.9,124.6,37.7z"/>
		</g>
	</g>
</g>
</svg>
