<?xml version="1.0" encoding="utf-8"?>
<svg version="1.1" xmlns="http://www.w3.org/2000/svg" xmlns:xlink="http://www.w3.org/1999/xlink" x="0px" y="0px" viewBox="0 0 60 60" style="enable-background:new 0 0 60 60;" xml:space="preserve">
<path fill="#ffffff" d="M42,27.7c-0.3-5.1-5.5-9.1-12-9.1c-6.6,0-12,4.3-12,9.5c0,4.8,4.5,8.8,10.4,9.5c0.4,0,0.6,0.4,0.6,0.7l-0.3,2.3
	c-0.1,0.5,0.5,0.9,0.9,0.7c5-2.4,7.9-4.9,9.7-7c0.3-0.4,1.4-1.9,1.6-2.3c0.5-0.8,0.8-1.7,0.9-2.6c0.1-0.3,0.1-0.5,0.1-0.7
	C42,28.4,42,27.9,42,27.7z M25.2,31.4h-2.5c-0.3,0-0.6-0.3-0.6-0.6v-4.6c0-0.3,0.3-0.6,0.6-0.6c0.3,0,0.6,0.3,0.6,0.6v4h1.8
	c0.3,0,0.6,0.3,0.6,0.6C25.9,31.1,25.6,31.4,25.2,31.4z M27.7,30.9c0,0.3-0.2,0.5-0.5,0.5h-0.3c-0.3,0-0.5-0.2-0.5-0.5V26
	c0-0.3,0.2-0.5,0.5-0.5h0.3c0.3,0,0.5,0.2,0.5,0.5V30.9z M33.4,30.7c0,0.3-0.3,0.6-0.6,0.6c-0.2,0-0.3-0.1-0.4-0.2
	c0,0-2.5-3.3-2.5-3.3v2.8c0,0.3-0.3,0.6-0.6,0.6c-0.3,0-0.6-0.3-0.6-0.6v-4.6c0-0.3,0.3-0.6,0.6-0.6c0.2,0,0.4,0.1,0.5,0.2
	c0,0,2.5,3.2,2.5,3.2v-2.8c0-0.3,0.3-0.6,0.6-0.6c0.3,0,0.6,0.3,0.6,0.6V30.7z M37.4,27.8c0.3,0,0.6,0.3,0.6,0.6S37.7,29,37.4,29
	h-1.8v1.1h1.8c0.3,0,0.6,0.3,0.6,0.6c0,0.3-0.3,0.6-0.6,0.6h-2.5c-0.3,0-0.6-0.3-0.6-0.6v-4.6c0-0.3,0.3-0.6,0.6-0.6h2.5
	c0.3,0,0.6,0.3,0.6,0.6s-0.3,0.6-0.6,0.6h-1.8v1.1H37.4z"/>
</svg>
